# xmcd
#
# Track frame offsets: 
#        150
#        21302
#        41547
#        66963
#        86893
#        106863
#        130246
#        156248
#        177966
#        202265
#
# Disc length: 2929 seconds
#
# Revision: 0
# Processed by: cddbd v1.5.2PL0 Copyright (c) Steve Scherf et al.
# Submitted via: ExactAudioCopy v0.99pb5
#
DISCID=8d0b6f0a
DTITLE=Elvis Phuong - Sai Gon Em Va Toi
DYEAR=2006
DGENRE=Viet Nam
TTITLE0=Ai Dua Em Ve
TTITLE1=Bo Vo
TTITLE2=Buon Oi Ta Chao Mi
TTITLE3=Cho Nguoi Tinh Xa
TTITLE4=LK Khong 1 - 2
TTITLE5=Mot Loi Cuoi Cho Em
TTITLE6=Sai Gon Em Va Toi
TTITLE7=LK Tieng Hat Lac Loai
TTITLE8=Tinh Khuc Chieu Mua
TTITLE9=Tinh Yeu Den Trong Gia Tu
EXTD=
EXTT0=
EXTT1=
EXTT2=
EXTT3=
EXTT4=
EXTT5=
EXTT6=
EXTT7=
EXTT8=
EXTT9=
PLAYORDER=
